<?xml version="1.0" encoding="UTF-8" ?>
<!DOCTYPE svg PUBLIC "-//W3C//DTD SVG 1.1//EN" "http://www.w3.org/Graphics/SVG/1.1/DTD/svg11.dtd">
<svg width="465pt" height="276pt" viewBox="0 0 465 276" version="1.1" xmlns="http://www.w3.org/2000/svg">
<g id="#249652ff">
<path fill="#249652" opacity="1.00" d=" M 284.52 42.37 C 295.28 38.46 306.90 40.66 318.07 40.37 C 320.99 39.88 323.61 42.04 324.08 44.88 C 324.29 48.46 323.98 52.04 324.01 55.62 C 329.99 55.73 335.99 55.59 341.96 56.18 C 346.58 56.54 352.60 54.88 355.66 59.49 C 359.22 64.31 354.75 71.29 349.06 71.11 C 340.63 71.36 332.20 70.38 323.75 70.60 C 323.60 77.23 323.50 83.86 323.39 90.50 C 330.92 90.61 338.44 90.77 345.97 90.85 C 348.29 90.94 350.81 90.86 352.85 92.17 C 356.24 94.24 357.51 99.56 354.70 102.61 C 353.04 105.17 349.89 106.09 346.98 105.89 C 339.02 105.78 331.07 105.59 323.12 105.48 C 322.32 110.27 325.02 117.08 319.95 120.10 C 317.05 120.99 313.90 120.33 310.91 120.46 C 302.56 120.12 293.94 121.09 285.87 118.38 C 274.56 114.83 265.09 105.96 260.83 94.90 C 259.90 92.44 259.11 89.94 258.31 87.44 C 252.18 87.40 246.05 87.17 239.91 87.22 C 233.63 87.29 227.45 90.55 223.93 95.76 C 219.86 101.49 219.01 109.45 222.33 115.73 C 225.52 122.91 233.30 127.22 241.00 127.28 C 249.80 127.38 258.49 131.03 264.62 137.36 C 272.08 144.00 275.71 154.13 275.52 163.98 C 276.16 183.31 275.56 202.65 275.76 221.99 C 270.25 222.00 264.75 222.00 259.24 221.99 C 259.18 210.01 259.39 198.02 259.14 186.04 C 258.30 177.69 260.03 169.35 259.40 161.02 C 258.55 151.32 249.86 142.99 240.02 143.18 C 229.13 143.15 218.29 137.89 211.85 129.04 C 206.09 122.10 204.07 112.82 204.16 103.98 C 205.14 90.32 215.18 78.21 227.90 73.57 C 237.83 69.62 248.65 71.81 259.02 71.28 C 261.42 57.93 271.80 46.72 284.52 42.37 Z" />
<path fill="#249652" opacity="1.00" d=" M 201.05 177.94 C 206.85 171.75 215.86 169.95 224.03 170.31 C 231.43 170.59 239.43 172.67 244.42 178.52 C 247.35 181.37 248.21 185.58 248.41 189.51 C 243.25 189.50 238.09 189.53 232.94 189.49 C 231.46 181.32 219.76 180.51 214.51 185.43 C 210.29 190.14 211.35 197.18 211.98 202.95 C 213.75 212.54 230.53 213.69 232.87 204.03 C 228.99 203.98 225.12 204.01 221.24 203.99 C 221.25 200.51 221.26 197.03 221.21 193.55 C 230.31 193.44 239.41 193.52 248.50 193.51 C 248.51 203.00 248.51 212.50 248.50 222.00 C 245.65 222.00 242.80 222.00 239.94 222.01 C 239.42 220.33 238.91 218.65 238.42 216.98 C 230.21 223.46 218.67 224.18 208.97 221.11 C 201.79 218.84 196.85 212.11 195.59 204.85 C 193.95 195.74 194.44 185.08 201.05 177.94 Z" />
<path fill="#249652" opacity="1.00" d=" M 350.82 176.85 C 355.70 171.72 363.20 170.35 370.00 170.22 C 376.84 170.25 384.40 171.52 389.34 176.67 C 391.98 179.31 392.76 183.13 392.86 186.74 C 387.80 186.76 382.74 186.77 377.68 186.74 C 377.13 180.16 367.64 179.82 364.02 183.95 C 364.55 185.28 364.83 186.96 366.42 187.44 C 373.98 190.46 382.99 190.01 389.59 195.26 C 395.05 199.21 395.15 207.10 392.74 212.81 C 389.93 219.23 382.62 222.01 376.08 222.65 C 368.16 223.10 359.53 222.84 352.66 218.39 C 348.16 215.44 346.77 209.82 346.66 204.76 C 351.80 204.75 356.93 204.74 362.07 204.76 C 362.35 206.80 362.73 209.35 364.92 210.22 C 368.27 211.52 372.16 211.49 375.56 210.41 C 377.96 209.79 378.12 205.98 375.67 205.30 C 368.19 202.16 359.23 202.54 352.63 197.38 C 346.21 192.79 345.97 182.64 350.82 176.85 Z" />
<path fill="#249652" opacity="1.00" d=" M 32.48 221.98 C 32.51 204.99 32.47 187.99 32.50 171.00 C 42.02 171.07 51.54 170.86 61.06 171.10 C 67.08 171.08 73.10 174.52 75.59 180.10 C 78.99 187.74 77.41 198.26 69.98 202.97 C 63.65 207.00 55.81 205.04 48.75 205.52 C 48.76 211.01 48.75 216.50 48.76 221.99 C 43.33 222.00 37.91 222.02 32.48 221.98 M 48.76 183.27 C 48.75 186.76 48.75 190.25 48.76 193.74 C 51.69 193.73 54.68 193.96 57.57 193.35 C 61.85 192.12 61.88 184.71 57.60 183.48 C 54.69 182.98 51.70 183.32 48.76 183.27 Z" />
<path fill="#249652" opacity="1.00" d=" M 86.00 171.00 C 91.42 171.00 96.83 170.99 102.25 171.00 C 102.25 183.67 102.26 196.33 102.25 208.99 C 111.01 209.03 119.77 208.95 128.53 209.04 C 128.49 213.35 128.50 217.67 128.52 221.98 C 114.34 222.02 100.17 221.99 86.00 222.00 C 86.00 205.00 86.00 188.00 86.00 171.00 Z" />
<path fill="#249652" opacity="1.00" d=" M 135.24 171.01 C 140.68 171.02 146.12 170.93 151.55 171.07 C 151.46 180.40 151.51 189.73 151.51 199.06 C 151.62 202.53 151.85 206.69 154.97 208.90 C 160.05 212.76 169.14 209.89 169.35 202.94 C 169.70 192.30 169.38 181.64 169.50 171.00 C 175.00 171.00 180.50 171.00 186.00 171.00 C 185.97 181.01 186.06 191.02 185.96 201.03 C 185.88 206.33 184.71 211.98 180.84 215.88 C 175.60 221.53 167.39 222.91 160.02 222.80 C 152.72 222.79 144.65 221.02 139.75 215.17 C 136.39 211.32 135.30 206.05 135.26 201.06 C 135.22 191.04 135.26 181.03 135.24 171.01 Z" />
<path fill="#249652" opacity="1.00" d=" M 287.24 171.01 C 292.04 171.01 296.85 170.95 301.65 171.05 C 308.69 179.51 315.94 187.78 323.01 196.22 C 322.99 187.81 323.00 179.41 323.00 171.00 C 328.00 171.00 333.00 171.00 338.00 171.00 C 338.00 188.00 338.00 205.00 338.00 222.00 C 333.28 222.01 328.56 221.97 323.85 222.03 C 316.53 213.84 309.48 205.43 302.24 197.17 C 302.27 205.45 302.25 213.72 302.25 222.00 C 297.25 222.00 292.24 222.00 287.24 221.99 C 287.25 205.00 287.25 188.00 287.24 171.01 Z" />
</g>
<g id="#6fa9f3ff">
<path fill="#6fa9f3" opacity="1.00" d=" M 154.25 104.26 C 158.24 98.67 165.60 97.14 172.06 96.81 C 178.58 96.69 185.74 97.70 190.71 102.32 C 193.54 104.78 194.13 108.71 194.51 112.23 C 189.81 112.26 185.12 112.28 180.42 112.23 C 179.73 106.28 171.68 105.49 168.05 109.13 C 167.01 111.43 169.48 113.00 171.37 113.52 C 178.17 115.44 185.92 115.64 191.59 120.35 C 196.63 124.50 196.55 132.28 193.68 137.66 C 190.23 143.28 183.33 145.39 177.07 145.65 C 169.91 145.75 161.96 145.43 156.04 140.88 C 152.40 138.11 151.73 133.25 151.36 129.01 C 156.13 129.00 160.90 128.99 165.67 129.01 C 165.92 131.60 167.19 134.37 170.09 134.68 C 173.14 135.10 176.75 135.33 179.37 133.46 C 180.61 132.33 180.06 129.99 178.44 129.50 C 171.16 126.12 162.00 126.93 155.90 121.09 C 151.01 117.02 151.45 109.41 154.25 104.26 Z" />
<path fill="#6fa9f3" opacity="1.00" d=" M 31.09 97.51 C 39.03 97.53 46.98 97.37 54.92 97.62 C 60.68 98.06 66.91 99.69 70.84 104.23 C 76.83 110.45 77.07 119.99 75.82 128.04 C 74.74 135.66 68.71 142.31 61.11 143.79 C 51.24 145.88 41.09 144.69 31.09 144.99 C 31.08 129.17 31.09 113.34 31.09 97.51 M 46.31 109.00 C 46.33 117.25 46.30 125.51 46.33 133.77 C 51.41 134.00 58.71 133.51 60.28 127.55 C 61.09 122.30 61.94 115.99 58.38 111.53 C 55.07 108.66 50.39 109.02 46.31 109.00 Z" />
<path fill="#6fa9f3" opacity="1.00" d=" M 128.13 97.51 C 133.20 97.48 138.28 97.48 143.36 97.51 C 143.31 108.33 143.50 119.15 143.26 129.96 C 143.22 135.42 140.47 141.11 135.40 143.54 C 130.71 146.23 125.13 145.86 119.93 145.71 C 114.51 145.41 108.75 142.82 106.19 137.80 C 104.45 134.84 104.25 131.35 104.04 128.01 C 108.75 127.99 113.47 127.99 118.18 128.01 C 118.51 129.56 118.61 131.20 119.36 132.63 C 121.12 134.89 125.01 135.04 126.90 132.85 C 128.21 131.19 128.04 128.94 128.14 126.96 C 128.13 117.14 128.13 107.33 128.13 97.51 Z" />
<path fill="#6fa9f3" opacity="1.00" d=" M 83.78 131.27 C 88.64 131.22 93.50 131.25 98.36 131.23 C 98.41 135.82 98.40 140.40 98.38 144.99 C 93.52 145.01 88.67 145.00 83.81 145.00 C 83.77 140.42 83.79 135.84 83.78 131.27 Z" />
</g>
</svg>
